<?xml version="1.0" ?><svg xmlns="http://www.w3.org/2000/svg" id="a" viewBox="0 0 100 100"><defs><style>.b{stroke-width:0px;}</style></defs><path class="b" d="m10.29,16.33c.56-1.35,1.57-1.81,3-1.77,2.58.07,5.16.01,7.74.02,3.15.01,5.13,1.54,5.95,4.59.81,3.01,1.63,6.02,2.41,9.03.14.55.36.73.93.73,11.35.03,22.7.08,34.05.13,6.76.03,13.52.06,20.28.1,3.31.02,5.46,2.62,4.73,5.84-1.84,8.14-3.72,16.27-5.63,24.4-.63,2.68-2.85,4.35-5.64,4.43-.98.03-1.96,0-2.94,0-13.73,0-27.45-.02-41.18-.02-.36,0-.72,0-1.08.04-1.34.14-2.29,1.22-2.29,2.58,0,1.36.96,2.42,2.31,2.55.36.04.72.03,1.08.03,15.12,0,30.24,0,45.36,0,1.84,0,2.93,1.05,2.75,2.64-.1.91-.67,1.48-1.46,1.89,1.53,4.2.78,7.8-2.98,10.42-2.74,1.91-6.47,1.73-9.15-.23-3.07-2.25-3.92-5.37-2.7-10.01h-14.45c1.44,4.12.66,7.69-3.03,10.2-2.86,1.96-6.01,1.94-8.87-.01-3.67-2.49-4.43-6.04-3-10.26-1.11,0-2.16.01-3.2,0-3.77-.06-6.68-2.56-7.26-6.21-.62-3.95,2.29-7.77,6.27-8.22.18-.02.35-.05.59-.08-.06-.3-.11-.57-.18-.84-3.4-12.63-6.81-25.27-10.21-37.9-.28-1.02-.45-1.16-1.5-1.16-2.58,0-5.16-.04-7.74.01-1.43.03-2.45-.46-2.97-1.83v-1.08Zm20.58,17.27c.92,3.44,1.82,6.74,2.69,10.05.12.46.38.52.78.51,2.58-.01,5.15,0,7.73,0,.19,0,.39-.04.63-.07-.03-.36-.05-.67-.09-.97-.39-2.93-.81-5.87-1.17-8.8-.07-.54-.25-.68-.76-.68-2.37,0-4.74-.01-7.11-.02-.87,0-1.74,0-2.7,0Zm30.12.14v10.33c.12.03.19.07.26.07,2.68,0,5.36,0,8.04.02.46,0,.55-.22.6-.6.3-2.32.61-4.64.91-6.97.12-.93.23-1.86.35-2.85h-10.16Zm-4.76,10.38v-10.41h-10.19c.47,3.51.93,6.97,1.4,10.41h8.8Zm28.7-10.34c-2.97,0-5.82,0-8.68.02-.16,0-.41.33-.44.54-.28,1.86-.52,3.72-.76,5.59-.18,1.37-.35,2.75-.53,4.18h8.03c.79-3.41,1.57-6.8,2.39-10.33Zm-40.23,25.38c-.03-.34-.03-.62-.07-.89-.39-2.93-.81-5.86-1.17-8.8-.07-.54-.26-.67-.77-.67-2.37.02-4.74,0-7.11.01-.17,0-.34.04-.6.07.87,3.2,1.7,6.35,2.61,9.48.1.33.62.74.95.75,2.02.07,4.05.03,6.15.03Zm16.29.03c2.19,0,4.32,0,6.46-.02.15,0,.4-.29.43-.47.43-3.08.84-6.17,1.24-9.26.02-.19,0-.39,0-.59h-8.13v10.34Zm-12.92-10.34c.44,3.34.87,6.58,1.29,9.82.05.43.26.54.66.53,1.75-.02,3.5,0,5.26,0,.32,0,.65,0,.96,0v-10.34h-8.17Zm25.81,0c-.45,3.44-.9,6.84-1.36,10.33,1.96,0,3.84.03,5.71-.01.69-.02.99-.54,1.13-1.18.51-2.28,1.04-4.56,1.57-6.85.17-.74.34-1.48.52-2.29h-7.56Zm-29.95,31.77c1.94,0,3.51-1.54,3.52-3.46,0-1.9-1.6-3.51-3.5-3.5-1.89,0-3.44,1.56-3.46,3.45-.02,1.95,1.5,3.5,3.45,3.51Zm29.34,0c1.95.02,3.51-1.49,3.53-3.44.02-1.92-1.55-3.51-3.46-3.52-1.88-.01-3.44,1.52-3.49,3.42-.04,1.94,1.48,3.52,3.42,3.54Z"/></svg>