<?xml version="1.0" encoding="iso-8859-1"?>
<!-- Generator: Adobe Illustrator 19.1.0, SVG Export Plug-In . SVG Version: 6.00 Build 0)  -->
<svg version="1.1" id="Capa_1" xmlns="http://www.w3.org/2000/svg" xmlns:xlink="http://www.w3.org/1999/xlink" x="0px" y="0px"
	 viewBox="0 0 513.32 513.32" style="enable-background:new 0 0 513.32 513.32;" xml:space="preserve">
<g>
	<g>
		<g>
			<path d="M513.32,149.718V0H363.602v42.777h72.72C355.046,81.275,299.437,162.551,299.437,256.66s55.61,175.385,136.885,213.883
				h-72.72v42.777H513.32V363.602h-42.777v74.859c-74.859-27.805-128.33-98.386-128.33-181.801
				c0-81.275,53.471-153.996,128.33-181.801v74.859L513.32,149.718L513.32,149.718z"/>
			<path d="M213.883,256.66c0-94.109-55.61-175.385-136.885-213.883h72.72V0H0v149.718h42.777V74.859
				c74.859,27.805,128.33,100.525,128.33,181.801s-53.471,153.996-128.33,181.801v-74.859H0V513.32h149.718v-42.777h-72.72
				C158.274,432.045,213.883,350.768,213.883,256.66z"/>
		</g>
	</g>
</g>
<g>
</g>
<g>
</g>
<g>
</g>
<g>
</g>
<g>
</g>
<g>
</g>
<g>
</g>
<g>
</g>
<g>
</g>
<g>
</g>
<g>
</g>
<g>
</g>
<g>
</g>
<g>
</g>
<g>
</g>
</svg>
