<?xml version="1.0" ?><svg style="enable-background:new 0 0 100 100;" version="1.1" viewBox="0 0 100 100" xml:space="preserve" xmlns="http://www.w3.org/2000/svg" xmlns:xlink="http://www.w3.org/1999/xlink"><g id="store"><g><path d="M96,29.9c0-0.1,0-0.1,0-0.2c0-0.1-0.1-0.1-0.1-0.2c0,0,0-0.1-0.1-0.1L84,15.6V12c0-0.6-0.4-1-1-1H17c-0.6,0-1,0.4-1,1v3.6    L4.2,29.3c0,0,0,0.1-0.1,0.1c0,0.1-0.1,0.1-0.1,0.2c0,0.1,0,0.1,0,0.2c0,0,0,0.1,0,0.1v5c0,3,2.2,5.4,5,5.9V83H8c-0.6,0-1,0.4-1,1    v4c0,0.6,0.4,1,1,1h84c0.6,0,1-0.4,1-1v-4c0-0.6-0.4-1-1-1h-1V40.9c2.8-0.5,5-2.9,5-5.9v-5C96,30,96,29.9,96,29.9z M17.5,17h4.7    l-7.7,12H7.2L17.5,17z M75.5,17l7.7,12h-7.6l-6-12H75.5z M67.4,17l6,12h-7.7l-4.3-12H67.4z M59.3,17l4.3,12h-7.7l-1.7-12H59.3z     M52.1,17l1.7,12h-7.7l1.7-12H52.1z M44.1,29h-7.7l4.3-12h5.1L44.1,29z M34.3,29h-7.7l6-12h6L34.3,29z M24.4,29h-7.6l7.7-12h5.8    L24.4,29z M16,31h8v4c0,2.2-1.8,4-4,4s-4-1.8-4-4V31z M26,31h8v4c0,2.2-1.8,4-4,4s-4-1.8-4-4V31z M36,31h8v4c0,2.2-1.8,4-4,4    s-4-1.8-4-4V31z M46,31h8v4c0,2.2-1.8,4-4,4s-4-1.8-4-4V31z M56,31h8v4c0,2.2-1.8,4-4,4s-4-1.8-4-4V31z M66,31h8v4    c0,2.2-1.8,4-4,4s-4-1.8-4-4V31z M76,31h8v4c0,2.2-1.8,4-4,4s-4-1.8-4-4V31z M85.5,29l-7.7-12h4.7l10.3,12H85.5z M18,13h64v2H18    V13z M6,35v-4h8v4c0,2.2-1.8,4-4,4S6,37.2,6,35z M91,87H9v-2h1h6h8h4h14h4h8h36h1V87z M43,83V64c0-0.6-0.4-1-1-1H28    c-0.6,0-1,0.4-1,1v19h-2v-3c0-0.6-0.4-1-1-1h-1V60h1c0.6,0,1-0.4,1-1v-3h20v3c0,0.6,0.4,1,1,1h1v19h-1c-0.6,0-1,0.4-1,1v3H43z     M41,83H29V65h12V83z M47,81h1h4h1v2h-6V81z M51,79h-2V60h2V79z M52,58h-4h-1v-2h6v2H52z M54,54h-8H24h-8v-2h38V54z M17.1,50    l3.3-4h29.1l3.3,4H17.1z M23,56v2h-1h-4h-1v-2H23z M19,60h2v19h-2V60z M18,81h4h1v2h-6v-2H18z M55,83v-3c0-0.6-0.4-1-1-1h-1V60h1    c0.6,0,1-0.4,1-1v-3c0.6,0,1-0.4,1-1v-4c0,0,0,0,0,0c0-0.1,0-0.2-0.1-0.3c0,0,0,0,0,0c0-0.1-0.1-0.2-0.2-0.2l-5-6    C50.6,44.1,50.3,44,50,44H20c-0.3,0-0.6,0.1-0.8,0.4l-5,6c-0.1,0.1-0.1,0.2-0.2,0.2c0,0,0,0,0,0c0,0.1-0.1,0.2-0.1,0.3    c0,0,0,0,0,0v4c0,0.6,0.4,1,1,1v3c0,0.6,0.4,1,1,1h1v19h-1c-0.6,0-1,0.4-1,1v3h-4V40.9c1.7-0.3,3.1-1.2,4-2.6    c1.1,1.6,2.9,2.7,5,2.7s3.9-1.1,5-2.7c1.1,1.6,2.9,2.7,5,2.7s3.9-1.1,5-2.7c1.1,1.6,2.9,2.7,5,2.7s3.9-1.1,5-2.7    c1.1,1.6,2.9,2.7,5,2.7s3.9-1.1,5-2.7c1.1,1.6,2.9,2.7,5,2.7s3.9-1.1,5-2.7c1.1,1.6,2.9,2.7,5,2.7s3.9-1.1,5-2.7    c1.1,1.6,2.9,2.7,5,2.7s3.9-1.1,5-2.7c0.9,1.4,2.3,2.3,4,2.6V83H55z M94,35c0,2.2-1.8,4-4,4s-4-1.8-4-4v-4h8V35z"/><path d="M83,73V60c0-0.6-0.4-1-1-1H60c-0.6,0-1,0.4-1,1v13c-0.6,0-1,0.4-1,1v3c0,0.6,0.4,1,1,1h24c0.6,0,1-0.4,1-1v-3    C84,73.4,83.6,73,83,73z M81,73h-9v-5h9V73z M81,66h-9v-5h9V66z M70,61v5h-9v-5H70z M61,68h9v5h-9V68z M82,76H60v-1h22V76z"/></g></g><g id="groceries"/><g id="fruits"/><g id="bakery"/><g id="hygiene_product"/><g id="detergent"/><g id="cooking_oil"/><g id="snacks"/><g id="canned_food"/><g id="wheat_flour"/><g id="milk_powder"/><g id="coffee_powder"/><g id="tea_bag"/><g id="meat"/><g id="chicken"/><g id="cart"/><g id="sausage"/><g id="egg"/><g id="drink"/><g id="vegetable"/></svg>